HIERARCHY
ROOT Hips
{
	OFFSET 56.877701 -32.693596 43.373703
	CHANNELS 6 Xposition Yposition Zposition Zrotation Xrotation Yrotation
	JOINT Chest
	{
		OFFSET -0.779999 1.005800 5.403099
		CHANNELS 6 Xposition Yposition Zposition Zrotation Xrotation Yrotation
		JOINT Chest2
		{
			OFFSET 0.000000 0.000000 4.236801
			CHANNELS 6 Xposition Yposition Zposition Zrotation Xrotation Yrotation
			JOINT Neck
			{
				OFFSET 0.000000 0.000000 9.874401
				CHANNELS 6 Xposition Yposition Zposition Zrotation Xrotation Yrotation
				JOINT Head
				{
					OFFSET 0.000000 0.000002 2.173893
					CHANNELS 6 Xposition Yposition Zposition Zrotation Xrotation Yrotation
					End Site
					{
						OFFSET 0.000000 0.000000 6.508102
					}
				}
			}
			JOINT LeftCollar
			{
				OFFSET 2.681599 -0.377600 5.432499
				CHANNELS 6 Xposition Yposition Zposition Zrotation Xrotation Yrotation
				JOINT LeftShoulder
				{
					OFFSET 5.161499 0.000000 0.000000
					CHANNELS 6 Xposition Yposition Zposition Zrotation Xrotation Yrotation
					JOINT LeftElbow
					{
						OFFSET 0.000000 0.000000 -10.869099
						CHANNELS 6 Xposition Yposition Zposition Zrotation Xrotation Yrotation
						JOINT LeftWrist
						{
							OFFSET 0.000000 0.000000 -13.344799
							CHANNELS 6 Xposition Yposition Zposition Zrotation Xrotation Yrotation
							End Site
							{
								OFFSET 0.000000 0.000000 -2.173901
							}
						}
					}
				}
			}
			JOINT RightCollar
			{
				OFFSET -2.381901 -1.419600 6.136600
				CHANNELS 6 Xposition Yposition Zposition Zrotation Xrotation Yrotation
				JOINT RightShoulder
				{
					OFFSET -4.550499 0.000000 0.000000
					CHANNELS 6 Xposition Yposition Zposition Zrotation Xrotation Yrotation
					JOINT RightElbow
					{
						OFFSET 0.000000 0.000000 -11.106499
						CHANNELS 6 Xposition Yposition Zposition Zrotation Xrotation Yrotation
						JOINT RightWrist
						{
							OFFSET 0.000000 0.000000 -12.874298
							CHANNELS 6 Xposition Yposition Zposition Zrotation Xrotation Yrotation
							End Site
							{
								OFFSET 0.000000 0.000000 -2.173901
							}
						}
					}
				}
			}
		}
	}
	JOINT LeftHip
	{
		OFFSET 2.431900 0.469601 -2.489399
		CHANNELS 6 Xposition Yposition Zposition Zrotation Xrotation Yrotation
		JOINT LeftKnee
		{
			OFFSET 0.000000 -0.000004 -18.200201
			CHANNELS 6 Xposition Yposition Zposition Zrotation Xrotation Yrotation
			JOINT LeftAnkle
			{
				OFFSET 0.000000 0.000000 -16.279900
				CHANNELS 6 Xposition Yposition Zposition Zrotation Xrotation Yrotation
				End Site
				{
					OFFSET 0.000000 -8.394100 0.000000
				}
			}
		}
	}
	JOINT RightHip
	{
		OFFSET -1.987999 -0.073502 -2.713001
		CHANNELS 6 Xposition Yposition Zposition Zrotation Xrotation Yrotation
		JOINT RightKnee
		{
			OFFSET 0.000000 -0.000004 -19.547802
			CHANNELS 6 Xposition Yposition Zposition Zrotation Xrotation Yrotation
			JOINT RightAnkle
			{
				OFFSET 0.000000 0.000000 -14.881199
				CHANNELS 6 Xposition Yposition Zposition Zrotation Xrotation Yrotation
				End Site
				{
					OFFSET 0.000000 -7.922699 0.000000
				}
			}
		}
	}
}
MOTION
Frames: 4
Frame Time: 0.041667
58.734306 -57.726501 5.350407 4701.174400 47.669509 -101.124543 -0.780001 1.005803 5.403103 16.946288 -42.462596 31.274190 -0.000003 -0.000001 4.236813 4.138315 1.117151 0.197146 -0.000001 0.000000 9.874407 -3.149396 -50.637909 41.830442 0.000003 0.000005 2.173895 -3.177906 -4.071384 -9.111086 2.681596 -0.377594 5.432499 -9.125519 3.979085 -14.186012 5.161506 0.000008 0.000005 -230.265293 -113.189792 -359.098370 0.000000 -0.000003 -10.869095 57.250676 -8.077957 11.198771 -0.000006 0.000004 -13.344803 -11.311500 -5.764330 -62.831013 -2.381913 -1.419596 6.136593 15.667136 30.159878 44.135344 -4.550504 -0.000011 0.000004 -1341.620509 -464.533733 -583.083523 0.000010 -0.000002 -11.106494 585.496492 -36.097543 561.485919 -0.000002 0.000010 -12.874298 -366.496230 -5.392325 64.845297 2.431906 0.469598 -2.489386 -119.972191 38.726350 50.976420 -0.000003 0.000003 -18.200193 11.849697 1.011126 60.608339 0.000000 0.000003 -16.279903 41.638742 47.168146 93.160959 -1.988000 -0.073498 -2.712987 -13.040622 -19.015534 -5.781656 -0.000003 -0.000002 -19.547806 -1822.236113 133.684738 -0.513874 0.000006 -0.000004 -14.881195 1854.325544 68.329103 -43.141097
58.737095 -57.718304 5.351608 4701.009601 47.578726 -100.947498 -0.779995 1.005793 5.403088 16.713432 -42.252107 31.256199 0.000012 0.000005 4.236795 4.122645 1.025648 0.175086 -0.000005 -0.000006 9.874405 -3.346395 -50.649295 41.594506 0.000010 0.000004 2.173894 -3.156557 -4.063590 -9.090131 2.681604 -0.377596 5.432498 -9.148667 4.069351 -14.375438 5.161494 0.000010 0.000002 -229.735107 -113.100297 -358.692794 0.000003 -0.000003 -10.869102 57.842516 -8.012145 11.393791 -0.000005 0.000006 -13.344804 -11.793344 -5.704274 -62.951818 -2.381901 -1.419603 6.136595 15.759541 30.111698 43.901874 -4.550503 -0.000004 -0.000002 -1341.012895 -464.314621 -582.401051 0.000005 -0.000015 -11.106490 585.341201 -36.097461 561.486137 -0.000001 -0.000000 -12.874300 -366.797141 -5.394997 64.495134 2.431907 0.469596 -2.489399 -119.921279 38.854060 50.960055 0.000002 -0.000005 -18.200195 11.736376 1.035902 60.571169 0.000007 -0.000006 -16.279902 41.767409 47.203810 93.232642 -1.988000 -0.073500 -2.713004 -13.219342 -18.932934 -5.848283 0.000004 -0.000004 -19.547800 -1822.336654 133.699751 -0.350604 0.000009 0.000009 -14.881199 1853.961195 68.383540 -42.854444
58.740002 -57.710693 5.352009 4700.818137 47.511356 -100.769052 -0.780000 1.005797 5.403091 16.589174 -42.035470 31.281799 -0.000003 -0.000004 4.236796 4.087515 0.983801 0.169674 0.000009 0.000000 9.874393 -3.562946 -50.688114 41.357953 -0.000001 0.000004 2.173890 -3.135552 -4.047561 -9.070556 2.681604 -0.377596 5.432494 -9.179533 4.178545 -14.518544 5.161495 0.000005 0.000001 -229.178788 -112.967224 -358.255252 0.000009 -0.000005 -10.869097 58.410296 -8.042879 11.698198 -0.000005 -0.000004 -13.344792 -12.189847 -5.640571 -62.971667 -2.381900 -1.419599 6.136597 15.844150 30.048099 43.692754 -4.550491 -0.000005 -0.000003 -1340.424078 -464.149439 -581.730873 0.000005 -0.000006 -11.106487 585.217711 -36.088227 561.481438 -0.000005 0.000000 -12.874297 -366.855881 -5.410300 64.453941 2.431902 0.469602 -2.489405 -119.805739 38.980740 50.929142 -0.000003 -0.000004 -18.200199 11.724079 1.248480 60.597595 -0.000008 -0.000005 -16.279907 41.715654 47.263669 93.104474 -1.987997 -0.073503 -2.713000 -13.339202 -18.829834 -5.885014 -0.000005 0.000000 -19.547792 -1822.523091 133.719627 -0.119362 -0.000003 0.000008 -14.881205 1853.442975 68.334158 -42.515916
58.743401 -57.702995 5.351208 4700.589954 47.448231 -100.589541 -0.779997 1.005805 5.403095 16.438107 -41.804934 31.311377 -0.000009 -0.000005 4.236794 4.072210 0.938581 0.163436 -0.000001 0.000006 9.874401 -3.777355 -50.730673 41.076778 0.000005 0.000002 2.173904 -3.118490 -4.038151 -9.040399 2.681596 -0.377596 5.432503 -9.179076 4.257130 -14.695191 5.161502 -0.000008 0.000002 -228.840352 -112.891901 -357.996360 0.000006 -0.000004 -10.869099 58.805443 -8.030415 11.947544 0.000000 0.000012 -13.344805 -12.475562 -5.618002 -62.988804 -2.381899 -1.419595 6.136597 15.900904 29.965618 43.483624 -4.550500 -0.000004 -0.000003 -1339.937550 -463.972073 -581.209756 0.000001 -0.000004 -11.106487 585.120012 -36.089862 561.473351 0.000001 -0.000006 -12.874300 -366.909484 -5.427656 64.443812 2.431896 0.469598 -2.489403 -119.414410 39.200406 50.732627 -0.000005 -0.000008 -18.200195 11.468627 1.644635 60.615784 0.000002 0.000006 -16.279892 41.396031 47.303288 92.751455 -1.988000 -0.073500 -2.712997 -13.387251 -18.700549 -5.871824 -0.000001 0.000000 -19.547798 -1822.730728 133.724039 0.088467 -0.000008 0.000010 -14.881201 1852.912733 68.271286 -42.173488
